# xmcd
#
# Track frame offsets: 
#        150
#        10785
#        24967
#        35242
#        46455
#        58246
#        70564
#        81349
#        93836
#        106098
#        116682
#        129753
#        142971
#        153890
#        165697
#        176440
#        187367
#        198790
#        211067
#        222459
#
# Disc length: 3104 seconds
#
# Revision: 2
# Processed by: cddbd v1.5.2PL0 Copyright (c) Steve Scherf et al.
# Submitted via: ExactAudioCopy v1.1
#
DISCID=0d0c1e14
DTITLE=Various Artist - Rhythm and Blues Goes Rock 'n' Roll - CD12
DYEAR=2002
DGENRE=Blues
TTITLE0=Jimmy Smith - Mama (mono)
TTITLE1=Milt Trenier and His Solid Six - You're Killing Me (mono)
TTITLE2=Piney Brown and His Blue Flashes - Talkin' About You (mono)
TTITLE3=Milt Buckner - Red, Red Wine (mono)
TTITLE4=Piney Brown - You Bring Out The Wolf In Me (mono)
TTITLE5=Jimmy Preston and Burnetta Evans - Oh, Babe (mono)
TTITLE6=Max 'Scatman' Bailey - My Oh My (mono)
TTITLE7=Lemmy Johnson - Eatin' And Sleepin' Blues (mono)
TTITLE8=Jimmy Lewis - Let's Get Together And Make Some Love (mono)
TTITLE9=Bumps Myers and His Frantic Five - I'm Telling You Baby (mono)
TTITLE10=Milt Trenier and His Solid Six - Flip Your Wigs (mono)
TTITLE11=Carl Matthews - Big Man (mono)
TTITLE12=Jimmy Crawford - Till My Baby Comes Back (mono)
TTITLE13=Cheri Lynn - Your Money Ain't Good Enough (mono)
TTITLE14=Melvin Smith - I'm Out Of My Mind (mono)
TTITLE15=Fletcher Smith - Mean Poor Gal (mono)
TTITLE16=Johnny 'Blues' Taylor - Hackensack Mama (mono)
TTITLE17=Elroy Peace - Onion Breath Baby (mono)
TTITLE18=Katie Webster and Ashton Conroy - Baby, Baby (mono)
TTITLE19=Eddie Alston - I Just Can't Help It (mono)
EXTD=
EXTT0=
EXTT1=
EXTT2=
EXTT3=
EXTT4=
EXTT5=
EXTT6=
EXTT7=
EXTT8=
EXTT9=
EXTT10=
EXTT11=
EXTT12=
EXTT13=
EXTT14=
EXTT15=
EXTT16=
EXTT17=
EXTT18=
EXTT19=
PLAYORDER=
